# xmcd CD database file
#
# Track frame offsets:
#	183
#	28308
#	57370
#	88648
#	133633
#	155228
#	191845
#	215370
#
# Disc length: 3154 seconds
#
# Revision: 0
# Processed by: cddbd v1.5.1PL0 Copyright (c) Steve Scherf et al.
# Submitted via: CDex 1.51
#
DISCID=760c5008
DTITLE=Piero Bassini Trio - Another Dream
DYEAR=1900
DGENRE=Jazz
TTITLE0=Another dream
TTITLE1=Old country
TTITLE2=Sweet dream
TTITLE3='round midnight
TTITLE4=What is this thing called love
TTITLE5=In your own sweet way
TTITLE6=For my father
TTITLE7=Blues connotation
EXTD=
EXTT0=
EXTT1=
EXTT2=
EXTT3=
EXTT4=
EXTT5=
EXTT6=
EXTT7=
PLAYORDER=
